<svg width="60" height="60" viewBox="0 0 60 60" fill="none" xmlns="http://www.w3.org/2000/svg">
<g clip-path="url(#clip0_20974_221741)">
<path d="M47.8653 30.4667L46.1523 29.5021L53.7693 15.9766L55.4822 16.9411L47.8653 30.4667Z" fill="url(#paint0_linear_20974_221741)" style=""/>
<path d="M52.7092 21.8651L55.4821 16.9411L53.7692 15.9766L50.4531 21.8651H52.7092Z" fill="url(#paint1_linear_20974_221741)" style=""/>
<path d="M54.6243 20.0084C56.5849 20.0084 58.1744 18.4189 58.1744 16.4583C58.1744 14.4976 56.5849 12.9082 54.6243 12.9082C52.6636 12.9082 51.0742 14.4976 51.0742 16.4583C51.0742 18.4189 52.6636 20.0084 54.6243 20.0084Z" fill="url(#paint2_linear_20974_221741)" style=""/>
<path d="M54.0163 33.1171L48.1614 28.3085V10.084L14.7422 47.6031L21.0955 59.8331L54.5148 40.5384C54.7022 40.3957 54.8292 40.1708 54.8292 39.9019V34.8367C54.8291 34.1708 54.5309 33.5398 54.0163 33.1171Z" fill="url(#paint3_linear_20974_221741)" style=""/>
<path d="M20.5974 52.4121L15.6073 48.3138L47.3454 7.6203L34.4076 0.150185L34.4072 0.150888C33.9893 -0.0804401 33.4487 -0.0539558 32.8577 0.287177L4.22129 16.8205C2.89742 17.5848 1.82422 19.6353 1.82422 21.4005V47.8875C1.82422 48.7337 2.27527 49.5158 3.00781 49.9396L20.207 59.891C20.7416 60.2003 21.4105 59.8146 21.4105 59.1969V54.1317C21.4104 53.4657 21.1121 52.8348 20.5974 52.4121Z" fill="url(#paint4_linear_20974_221741)" style=""/>
<path d="M45.7757 7.74662L17.1393 24.2799C15.8154 25.0442 14.7422 27.0948 14.7422 28.8599V46.4051C14.7422 48.1702 15.8154 48.9816 17.1393 48.2173L45.7757 31.684C47.0995 30.9198 48.1727 28.8692 48.1727 27.1041V9.55881C48.1726 7.79362 47.0994 6.98233 45.7757 7.74662Z" fill="url(#paint5_linear_20974_221741)" style=""/>
<path d="M25.5148 23.7832L18.5977 27.7768V41.3121L25.5148 37.3185V23.7832Z" fill="url(#paint6_linear_20974_221741)" style=""/>
<path d="M18.5977 41.3121L25.5148 23.7832L18.5977 27.7768V41.3121Z" fill="url(#paint7_linear_20974_221741)" style=""/>
<path d="M25.0017 25.0781L19.1094 28.4801V40.0173L25.0017 36.6154V25.0781Z" fill="#221C36" style="fill:#221C36;fill:color(display-p3 0.1333 0.1098 0.2118);fill-opacity:1;"/>
<path d="M24.6623 25.7402L19.4531 28.7477V39.3511L24.6623 36.3436V25.7402Z" fill="url(#paint8_linear_20974_221741)" style=""/>
<path d="M23.3709 28.5553L20.5704 30.1722C20.318 30.3179 20.1133 30.709 20.1133 31.0456C20.1133 31.3821 20.3179 31.5369 20.5704 31.3911L22.7175 30.1515L21.3332 35.1277C21.184 35.6638 21.3498 36.0613 21.7101 35.9602C21.9776 35.885 22.2391 35.548 22.3441 35.1674L23.9485 29.3452C24.004 29.1436 24.0146 28.9453 23.9751 28.7857C23.8991 28.4787 23.6446 28.3972 23.3709 28.5553Z" fill="#FF4757" style="fill:#FF4757;fill:color(display-p3 1.0000 0.2784 0.3412);fill-opacity:1;"/>
<path d="M21.6052 36.0796C21.5009 36.0796 21.4077 36.0422 21.3348 35.9695C21.1674 35.8027 21.1304 35.4776 21.2354 35.1L22.5516 30.3685L20.6245 31.4811C20.4812 31.5639 20.3383 31.5726 20.2216 31.5053C20.0882 31.4283 20.0117 31.2608 20.0117 31.0458C20.0117 30.6704 20.2353 30.2473 20.5208 30.0825L23.3213 28.4657C23.4915 28.3674 23.6636 28.3465 23.8057 28.407C23.9389 28.4637 24.0356 28.5894 24.078 28.7609C24.1211 28.9352 24.1114 29.1525 24.0507 29.3728L22.4463 35.1951C22.329 35.6207 22.0386 35.9765 21.7405 36.0601C21.6937 36.0731 21.6486 36.0796 21.6052 36.0796ZM22.7196 30.0478C22.7421 30.0478 22.7646 30.0551 22.7831 30.0696C22.8164 30.0954 22.8308 30.1388 22.8195 30.1794L21.4353 35.1556C21.3532 35.451 21.3712 35.7128 21.4815 35.8226C21.5313 35.8723 21.5979 35.8847 21.6842 35.8603C21.9088 35.7973 22.1503 35.4876 22.2461 35.1399L23.8505 29.3176C23.902 29.1311 23.9112 28.951 23.8766 28.8107C23.8579 28.7352 23.8163 28.637 23.7242 28.5979C23.6441 28.5636 23.5377 28.5804 23.4249 28.6453L20.6245 30.2622C20.4049 30.389 20.2194 30.7478 20.2194 31.0457C20.2194 31.1826 20.259 31.2872 20.3254 31.3255C20.3888 31.3621 20.4666 31.3327 20.5208 31.3014L22.6678 30.0618C22.6839 30.0524 22.7018 30.0478 22.7196 30.0478Z" fill="#221C36" style="fill:#221C36;fill:color(display-p3 0.1333 0.1098 0.2118);fill-opacity:1;"/>
<path d="M33.9757 18.8965L27.0586 22.89V36.4254L33.9757 32.4318V18.8965Z" fill="url(#paint9_linear_20974_221741)" style=""/>
<path d="M27.0586 36.4254L33.9757 18.8965L27.0586 22.89V36.4254Z" fill="url(#paint10_linear_20974_221741)" style=""/>
<path d="M33.4627 20.1914L27.5703 23.5934V35.1306L33.4627 31.7286V20.1914Z" fill="#221C36" style="fill:#221C36;fill:color(display-p3 0.1333 0.1098 0.2118);fill-opacity:1;"/>
<path d="M33.1233 20.8555L27.9141 23.863V34.4663L33.1233 31.4588V20.8555Z" fill="url(#paint11_linear_20974_221741)" style=""/>
<path d="M31.8318 23.6705L29.0314 25.2873C28.7789 25.4331 28.5742 25.8241 28.5742 26.1607C28.5742 26.4973 28.7788 26.6521 29.0314 26.5063L31.1785 25.2667L29.7941 30.2428C29.645 30.7788 29.8108 31.1765 30.1709 31.0753C30.4384 31.0002 30.6999 30.6632 30.8049 30.2826L32.4093 24.4603C32.4648 24.2588 32.4754 24.0605 32.4359 23.9009C32.3601 23.594 32.1055 23.5125 31.8318 23.6705Z" fill="#FF4757" style="fill:#FF4757;fill:color(display-p3 1.0000 0.2784 0.3412);fill-opacity:1;"/>
<path d="M30.0664 31.1948C29.962 31.1948 29.8687 31.1574 29.7958 31.0847C29.6285 30.9178 29.5914 30.5927 29.6964 30.2151L31.0126 25.4836L29.0854 26.5963C28.9422 26.679 28.7993 26.6876 28.6825 26.6204C28.5492 26.5434 28.4727 26.376 28.4727 26.1609C28.4727 25.7856 28.6962 25.3625 28.9817 25.1977L31.7821 23.5809C31.9523 23.4826 32.1243 23.4617 32.2665 23.5222C32.3997 23.5789 32.4964 23.7047 32.5388 23.8761C32.582 24.0505 32.5722 24.2677 32.5115 24.4881L30.9071 30.3103C30.7898 30.7359 30.4996 31.0917 30.2013 31.1755C30.1549 31.1884 30.1098 31.1948 30.0664 31.1948ZM31.1807 25.1631C31.2032 25.1631 31.2257 25.1703 31.2443 25.1849C31.2775 25.2106 31.292 25.2541 31.2807 25.2947L29.8965 30.2708C29.8143 30.5662 29.8324 30.828 29.9425 30.9378C29.9925 30.9875 30.059 30.9999 30.1454 30.9756C30.3699 30.9125 30.6116 30.6028 30.7073 30.255L32.3117 24.4327C32.3633 24.2462 32.3724 24.0662 32.3377 23.9258C32.3191 23.8503 32.2775 23.7521 32.1854 23.713C32.1052 23.6788 31.9988 23.6955 31.8861 23.7604L29.0857 25.3773C28.8661 25.5041 28.6805 25.8629 28.6805 26.1608C28.6805 26.2977 28.7202 26.4023 28.7866 26.4406C28.8499 26.4771 28.9277 26.4479 28.982 26.4165L31.1289 25.1769C31.1451 25.1676 31.1629 25.1631 31.1807 25.1631Z" fill="#221C36" style="fill:#221C36;fill:color(display-p3 0.1333 0.1098 0.2118);fill-opacity:1;"/>
<path d="M42.4405 14.0117L35.5234 18.0054V31.5407L42.4405 27.5471V14.0117Z" fill="url(#paint12_linear_20974_221741)" style=""/>
<path d="M35.5234 31.5407L42.4405 14.0117L35.5234 18.0054V31.5407Z" fill="url(#paint13_linear_20974_221741)" style=""/>
<path d="M41.9276 15.3066L36.0352 18.7086V30.2458L41.9276 26.8439V15.3066Z" fill="#221C36" style="fill:#221C36;fill:color(display-p3 0.1333 0.1098 0.2118);fill-opacity:1;"/>
<path d="M41.5842 15.9707L36.375 18.9782V29.5817L41.5842 26.5742V15.9707Z" fill="url(#paint14_linear_20974_221741)" style=""/>
<path d="M40.2966 18.7838L37.4962 20.4006C37.2438 20.5464 37.0391 20.9375 37.0391 21.274C37.0391 21.6106 37.2437 21.7654 37.4962 21.6196L39.6433 20.38L38.259 25.3562C38.1098 25.8923 38.2756 26.2898 38.6359 26.1887C38.9034 26.1135 39.1648 25.7765 39.2698 25.3959L40.8743 19.5737C40.9298 19.3721 40.9404 19.1738 40.9009 19.0142C40.8249 18.7073 40.5704 18.6257 40.2966 18.7838Z" fill="#FF4757" style="fill:#FF4757;fill:color(display-p3 1.0000 0.2784 0.3412);fill-opacity:1;"/>
<path d="M38.5271 26.3081C38.4228 26.3081 38.3295 26.2707 38.2565 26.1979C38.0893 26.031 38.0523 25.706 38.1573 25.3284L39.4735 20.5968L37.5464 21.7095C37.403 21.7922 37.2602 21.8009 37.1435 21.7337C37.0101 21.6567 36.9336 21.4891 36.9336 21.2742C36.9336 20.8988 37.1572 20.4756 37.4427 20.311L40.2432 18.6942C40.4132 18.596 40.5854 18.575 40.7275 18.6355C40.8608 18.6922 40.9575 18.8179 40.9999 18.9894C41.043 19.1637 41.0333 19.381 40.9726 19.6013L39.3682 25.4235C39.2509 25.8492 38.9605 26.2049 38.6623 26.2887C38.6157 26.3016 38.5705 26.3081 38.5271 26.3081ZM39.6414 20.2764C39.6639 20.2764 39.6864 20.2837 39.705 20.2982C39.7382 20.324 39.7527 20.3675 39.7413 20.408L38.3571 25.3842C38.2749 25.6795 38.293 25.9414 38.4031 26.0512C38.453 26.101 38.5196 26.1133 38.606 26.0889C38.8305 26.0259 39.0721 25.7162 39.1679 25.3685L40.7723 19.5462C40.8237 19.3597 40.833 19.1796 40.7983 19.0393C40.7797 18.9638 40.7381 18.8656 40.6461 18.8265C40.5655 18.7922 40.4594 18.809 40.3467 18.8739L37.5462 20.4908C37.3266 20.6176 37.1411 20.9764 37.1411 21.2743C37.1411 21.4112 37.1807 21.5158 37.2472 21.5541C37.3105 21.5907 37.3883 21.5613 37.4425 21.53L39.5895 20.2904C39.6058 20.281 39.6236 20.2764 39.6414 20.2764Z" fill="#221C36" style="fill:#221C36;fill:color(display-p3 0.1333 0.1098 0.2118);fill-opacity:1;"/>
<path d="M39.3361 11.4648L17.1393 24.2802C15.8154 25.0445 14.7422 27.0951 14.7422 28.8603V46.4055C14.7422 48.1705 15.8154 48.9819 17.1393 48.2177L27.0458 42.4981L39.3361 11.4648Z" fill="url(#paint15_linear_20974_221741)" style=""/>
<path d="M45.3899 12.1601V27.7158C45.3899 27.9812 45.2285 28.2895 45.0295 28.4043L17.8853 44.0762C17.6863 44.191 17.5249 44.0691 17.5249 43.8038V28.248C17.5249 27.9827 17.6863 27.6744 17.8853 27.5595L45.0295 11.8877C45.2285 11.7728 45.3899 11.8948 45.3899 12.1601ZM45.7757 7.74662L17.1393 24.2799C15.8154 25.0442 14.7422 27.0948 14.7422 28.8599V46.4051C14.7422 48.1702 15.8154 48.9816 17.1393 48.2172L45.7757 31.6839C47.0995 30.9196 48.1727 28.8691 48.1727 27.104V9.55881C48.1726 7.79362 47.0995 6.98233 45.7757 7.74662Z" fill="url(#paint16_linear_20974_221741)" style=""/>
<path d="M32.3545 17.3319C32.3545 16.672 31.9534 16.3687 31.4585 16.6544C30.9636 16.9401 30.5625 17.7066 30.5625 18.3665C30.5625 19.0264 30.9636 19.3297 31.4585 19.044C31.9534 18.7583 32.3545 17.9917 32.3545 17.3319Z" fill="#F7E041" style="fill:#F7E041;fill:color(display-p3 0.9686 0.8784 0.2549);fill-opacity:1;"/>
<path d="M35.9248 15.2713C35.9248 14.6114 35.5237 14.3081 35.0288 14.5938C34.5339 14.8796 34.1328 15.6461 34.1328 16.306C34.1328 16.9658 34.5339 17.2691 35.0288 16.9834C35.5237 16.6976 35.9248 15.9311 35.9248 15.2713Z" fill="#F7E041" style="fill:#F7E041;fill:color(display-p3 0.9686 0.8784 0.2549);fill-opacity:1;"/>
<path d="M39.3306 14.0438C39.6284 13.3448 39.5493 12.6416 39.1539 12.4731C38.7585 12.3046 38.1965 12.7346 37.8986 13.4336C37.6008 14.1326 37.6799 14.8358 38.0754 15.0043C38.4708 15.1728 39.0328 14.7427 39.3306 14.0438Z" fill="#F7E041" style="fill:#F7E041;fill:color(display-p3 0.9686 0.8784 0.2549);fill-opacity:1;"/>
<path d="M43.0655 11.1483C43.0655 10.4884 42.6643 10.1851 42.1695 10.4708C41.6746 10.7565 41.2734 11.523 41.2734 12.1829C41.2734 12.8428 41.6746 13.1461 42.1695 12.8604C42.6643 12.5746 43.0655 11.808 43.0655 11.1483Z" fill="#F7E041" style="fill:#F7E041;fill:color(display-p3 0.9686 0.8784 0.2549);fill-opacity:1;"/>
<path d="M47.0069 9.36701C47.0069 8.70713 46.6057 8.40385 46.1109 8.68955C45.616 8.97525 45.2148 9.74178 45.2148 10.4017C45.2148 11.0615 45.616 11.3648 46.1109 11.0791C46.6056 10.7934 47.0069 10.0269 47.0069 9.36701Z" fill="#F7E041" style="fill:#F7E041;fill:color(display-p3 0.9686 0.8784 0.2549);fill-opacity:1;"/>
<path d="M17.6983 26.2869C17.6983 25.6271 17.2971 25.3238 16.8023 25.6095C16.3074 25.8952 15.9062 26.6617 15.9062 27.3216C15.9062 27.9815 16.3074 28.2847 16.8023 27.999C17.2971 27.7133 17.6983 26.9468 17.6983 26.2869Z" fill="#F7E041" style="fill:#F7E041;fill:color(display-p3 0.9686 0.8784 0.2549);fill-opacity:1;"/>
<path d="M21.6436 23.5174C21.6436 22.8575 21.2425 22.5542 20.7476 22.8399C20.2527 23.1256 19.8516 23.8922 19.8516 24.5521C19.8516 25.2119 20.2527 25.5152 20.7476 25.2295C21.2425 24.9438 21.6436 24.1773 21.6436 23.5174Z" fill="#F7E041" style="fill:#F7E041;fill:color(display-p3 0.9686 0.8784 0.2549);fill-opacity:1;"/>
<path d="M25.2139 21.4549C25.2139 20.795 24.8128 20.4917 24.3179 20.7775C23.823 21.0632 23.4219 21.8297 23.4219 22.4896C23.4219 23.1495 23.823 23.4528 24.3179 23.1671C24.8128 22.8813 25.2139 22.1147 25.2139 21.4549Z" fill="#F7E041" style="fill:#F7E041;fill:color(display-p3 0.9686 0.8784 0.2549);fill-opacity:1;"/>
<path d="M28.7842 19.3944C28.7842 18.7345 28.3831 18.4312 27.8882 18.7169C27.3933 19.0026 26.9922 19.7691 26.9922 20.429C26.9922 21.0889 27.3933 21.3922 27.8882 21.1065C28.383 20.8208 28.7842 20.0542 28.7842 19.3944Z" fill="#F7E041" style="fill:#F7E041;fill:color(display-p3 0.9686 0.8784 0.2549);fill-opacity:1;"/>
<path d="M32.3545 37.5955C32.3545 36.9356 31.9534 36.6323 31.4585 36.9181C30.9636 37.2038 30.5625 37.9704 30.5625 38.6302C30.5625 39.2901 30.9636 39.5934 31.4585 39.3077C31.9534 39.0218 32.3545 38.2552 32.3545 37.5955Z" fill="#F7E041" style="fill:#F7E041;fill:color(display-p3 0.9686 0.8784 0.2549);fill-opacity:1;"/>
<path d="M35.9248 35.535C35.9248 34.8751 35.5237 34.5718 35.0288 34.8575C34.5339 35.1432 34.1328 35.9097 34.1328 36.5696C34.1328 37.2295 34.5339 37.5328 35.0288 37.2471C35.5237 36.9613 35.9248 36.1947 35.9248 35.535Z" fill="#F7E041" style="fill:#F7E041;fill:color(display-p3 0.9686 0.8784 0.2549);fill-opacity:1;"/>
<path d="M39.3267 34.3172C39.6245 33.6182 39.5454 32.915 39.15 32.7465C38.7545 32.578 38.1926 33.0081 37.8947 33.707C37.5969 34.406 37.676 35.1092 38.0715 35.2777C38.4669 35.4462 39.0289 35.0162 39.3267 34.3172Z" fill="#F7E041" style="fill:#F7E041;fill:color(display-p3 0.9686 0.8784 0.2549);fill-opacity:1;"/>
<path d="M43.0655 31.4119C43.0655 30.7521 42.6643 30.4488 42.1695 30.7345C41.6746 31.0202 41.2734 31.7867 41.2734 32.4466C41.2734 33.1065 41.6746 33.4097 42.1695 33.124C42.6643 32.8383 43.0655 32.0718 43.0655 31.4119Z" fill="#F7E041" style="fill:#F7E041;fill:color(display-p3 0.9686 0.8784 0.2549);fill-opacity:1;"/>
<path d="M47.0069 28.6404C47.0069 27.9806 46.6057 27.6773 46.1109 27.963C45.616 28.2487 45.2148 29.0152 45.2148 29.6751C45.2148 30.335 45.616 30.6383 46.1109 30.3524C46.6056 30.0667 47.0069 29.3002 47.0069 28.6404Z" fill="#F7E041" style="fill:#F7E041;fill:color(display-p3 0.9686 0.8784 0.2549);fill-opacity:1;"/>
<path d="M17.522 46.407C17.8198 45.7081 17.7407 45.0048 17.3453 44.8363C16.9499 44.6679 16.3879 45.0979 16.09 45.7969C15.7922 46.4959 15.8713 47.1991 16.2668 47.3676C16.6622 47.5361 17.2242 47.106 17.522 46.407Z" fill="#F7E041" style="fill:#F7E041;fill:color(display-p3 0.9686 0.8784 0.2549);fill-opacity:1;"/>
<path d="M21.6436 43.781C21.6436 43.1211 21.2425 42.8179 20.7476 43.1037C20.2527 43.3894 19.8516 44.1559 19.8516 44.8158C19.8516 45.4757 20.2527 45.779 20.7476 45.4931C21.2425 45.2074 21.6436 44.4409 21.6436 43.781Z" fill="#F7E041" style="fill:#F7E041;fill:color(display-p3 0.9686 0.8784 0.2549);fill-opacity:1;"/>
<path d="M25.2139 41.7185C25.2139 41.0586 24.8128 40.7554 24.3179 41.0412C23.823 41.3269 23.4219 42.0934 23.4219 42.7533C23.4219 43.4132 23.823 43.7165 24.3179 43.4308C24.8128 43.1449 25.2139 42.3784 25.2139 41.7185Z" fill="#F7E041" style="fill:#F7E041;fill:color(display-p3 0.9686 0.8784 0.2549);fill-opacity:1;"/>
<path d="M28.7842 39.658C28.7842 38.9981 28.3831 38.6948 27.8882 38.9806C27.3933 39.2663 26.9922 40.0329 26.9922 40.6927C26.9922 41.3526 27.3933 41.6559 27.8882 41.3701C28.383 41.0844 28.7842 40.3179 28.7842 39.658Z" fill="#F7E041" style="fill:#F7E041;fill:color(display-p3 0.9686 0.8784 0.2549);fill-opacity:1;"/>
<path d="M16.7681 32.4363C17.0659 31.7374 16.9868 31.0341 16.5914 30.8656C16.196 30.6972 15.634 31.1272 15.3361 31.8262C15.0383 32.5252 15.1174 33.2284 15.5129 33.3969C15.9083 33.5654 16.4703 33.1353 16.7681 32.4363Z" fill="#F7E041" style="fill:#F7E041;fill:color(display-p3 0.9686 0.8784 0.2549);fill-opacity:1;"/>
<path d="M16.0523 38.0713C16.5471 37.7856 16.9483 37.019 16.9483 36.3592C16.9483 35.6993 16.5471 35.396 16.0523 35.6818C15.5574 35.9675 15.1563 36.734 15.1563 37.3939C15.1561 38.0537 15.5574 38.357 16.0523 38.0713Z" fill="#F7E041" style="fill:#F7E041;fill:color(display-p3 0.9686 0.8784 0.2549);fill-opacity:1;"/>
<path d="M16.0523 42.8311C16.5471 42.5454 16.9483 41.7788 16.9483 41.119C16.9483 40.4591 16.5471 40.1558 16.0523 40.4415C15.5574 40.7272 15.1563 41.4937 15.1563 42.1536C15.1561 42.8135 15.5574 43.1168 16.0523 42.8311Z" fill="#F7E041" style="fill:#F7E041;fill:color(display-p3 0.9686 0.8784 0.2549);fill-opacity:1;"/>
<path d="M46.8101 15.5518C47.305 15.2661 47.7061 14.4996 47.7061 13.8397C47.7061 13.1798 47.305 12.8765 46.8101 13.1622C46.3152 13.4479 45.9141 14.2144 45.9141 14.8743C45.9141 15.5342 46.3152 15.8375 46.8101 15.5518Z" fill="#F7E041" style="fill:#F7E041;fill:color(display-p3 0.9686 0.8784 0.2549);fill-opacity:1;"/>
<path d="M46.8101 20.3115C47.305 20.0258 47.7061 19.2593 47.7061 18.5994C47.7061 17.9396 47.305 17.6363 46.8101 17.922C46.3152 18.2077 45.9141 18.9742 45.9141 19.6341C45.9141 20.294 46.3152 20.5972 46.8101 20.3115Z" fill="#F7E041" style="fill:#F7E041;fill:color(display-p3 0.9686 0.8784 0.2549);fill-opacity:1;"/>
<path d="M47.5415 24.202C47.8394 23.503 47.7602 22.7998 47.3648 22.6313C46.9694 22.4628 46.4074 22.8928 46.1096 23.5918C45.8117 24.2908 45.8909 24.994 46.2863 25.1625C46.6817 25.331 47.2437 24.9009 47.5415 24.202Z" fill="#F7E041" style="fill:#F7E041;fill:color(display-p3 0.9686 0.8784 0.2549);fill-opacity:1;"/>
<path d="M17.8837 44.0754L45.028 28.4036C45.227 28.2888 45.3883 27.9804 45.3883 27.7151V12.1594C45.3883 11.894 45.2269 11.7721 45.028 11.887L43.7474 12.6263V27.3844C43.7474 27.6497 43.5862 27.9579 43.3871 28.0729L17.5234 43.0054V43.803C17.5234 44.0684 17.6847 44.1904 17.8837 44.0754Z" fill="url(#paint17_linear_20974_221741)" style=""/>
<path d="M23.0362 45.8966L20.1928 47.5487C19.9876 47.6679 19.9644 47.9552 20.1478 48.1058L22.5957 50.1163C22.8193 50.2999 23.1334 50.3252 23.3836 50.1799L26.2271 48.5279C26.4323 48.4087 26.4555 48.1214 26.2721 47.9708L23.8241 45.9602C23.6005 45.7766 23.2863 45.7511 23.0362 45.8966Z" fill="#F7E041" style="fill:#F7E041;fill:color(display-p3 0.9686 0.8784 0.2549);fill-opacity:1;"/>
<path d="M27.6065 43.2598L24.7631 44.9119C24.5579 45.0311 24.5347 45.3184 24.7181 45.4691L27.166 47.4796C27.3896 47.6632 27.7037 47.6886 27.9539 47.5432L30.7974 45.8913C31.0026 45.7721 31.0258 45.4847 30.8424 45.334L28.3944 43.3234C28.1708 43.1398 27.8566 43.1145 27.6065 43.2598Z" fill="#F7E041" style="fill:#F7E041;fill:color(display-p3 0.9686 0.8784 0.2549);fill-opacity:1;"/>
<path d="M32.1768 40.6212L29.3334 42.2733C29.1282 42.3925 29.105 42.6798 29.2884 42.8304L31.7363 44.8409C31.9599 45.0245 32.274 45.0498 32.5242 44.9045L35.3677 43.2525C35.5729 43.1333 35.5961 42.846 35.4127 42.6953L32.9647 40.6847C32.7411 40.5012 32.4269 40.4758 32.1768 40.6212Z" fill="#F7E041" style="fill:#F7E041;fill:color(display-p3 0.9686 0.8784 0.2549);fill-opacity:1;"/>
<path d="M46.6768 32.2071L43.8334 33.8592C43.6282 33.9784 43.605 34.2657 43.7884 34.4163L46.2363 36.4268C46.4599 36.6104 46.774 36.6357 47.0242 36.4904L49.8677 34.8384C50.0729 34.7192 50.0961 34.4319 49.9127 34.2812L47.4647 32.2706C47.2411 32.0871 46.9269 32.0618 46.6768 32.2071Z" fill="#E9E5F6" style="fill:#E9E5F6;fill:color(display-p3 0.9137 0.8980 0.9647);fill-opacity:1;"/>
</g>
<defs>
<linearGradient id="paint0_linear_20974_221741" x1="45.7374" y1="29.158" x2="55.9089" y2="17.3151" gradientUnits="userSpaceOnUse">
<stop stop-color="#C9BAEC" style="stop-color:#C9BAEC;stop-color:color(display-p3 0.7882 0.7294 0.9255);stop-opacity:1;"/>
<stop offset="1" stop-color="#F3EEFA" style="stop-color:#F3EEFA;stop-color:color(display-p3 0.9529 0.9333 0.9804);stop-opacity:1;"/>
</linearGradient>
<linearGradient id="paint1_linear_20974_221741" x1="54.2382" y1="16.8879" x2="51.5298" y2="22.2493" gradientUnits="userSpaceOnUse">
<stop stop-color="#7662BD" style="stop-color:#7662BD;stop-color:color(display-p3 0.4627 0.3843 0.7412);stop-opacity:1;"/>
<stop offset="1" stop-color="#7662BD" stop-opacity="0" style="stop-color:none;stop-opacity:0;"/>
</linearGradient>
<linearGradient id="paint2_linear_20974_221741" x1="56.349" y1="21.3634" x2="53.5305" y2="13.3337" gradientUnits="userSpaceOnUse">
<stop stop-color="#63141A" style="stop-color:#63141A;stop-color:color(display-p3 0.3882 0.0784 0.1020);stop-opacity:1;"/>
<stop offset="0.2842" stop-color="#981F28" style="stop-color:#981F28;stop-color:color(display-p3 0.5961 0.1216 0.1569);stop-opacity:1;"/>
<stop offset="0.5147" stop-color="#C62834" style="stop-color:#C62834;stop-color:color(display-p3 0.7765 0.1569 0.2039);stop-opacity:1;"/>
<stop offset="0.9681" stop-color="#FB4355" style="stop-color:#FB4355;stop-color:color(display-p3 0.9843 0.2627 0.3333);stop-opacity:1;"/>
<stop offset="1" stop-color="#FF4557" style="stop-color:#FF4557;stop-color:color(display-p3 1.0000 0.2706 0.3412);stop-opacity:1;"/>
</linearGradient>
<linearGradient id="paint3_linear_20974_221741" x1="39.6209" y1="43.6057" x2="38.9447" y2="42.4345" gradientUnits="userSpaceOnUse">
<stop stop-color="#59171D" style="stop-color:#59171D;stop-color:color(display-p3 0.3490 0.0902 0.1137);stop-opacity:1;"/>
<stop offset="0.1229" stop-color="#641A21" style="stop-color:#641A21;stop-color:color(display-p3 0.3922 0.1020 0.1294);stop-opacity:1;"/>
<stop offset="0.7108" stop-color="#972731" style="stop-color:#972731;stop-color:color(display-p3 0.5922 0.1529 0.1922);stop-opacity:1;"/>
<stop offset="1" stop-color="#AB2C37" style="stop-color:#AB2C37;stop-color:color(display-p3 0.6706 0.1725 0.2157);stop-opacity:1;"/>
</linearGradient>
<linearGradient id="paint4_linear_20974_221741" x1="17.8818" y1="28.8268" x2="19.9019" y2="25.3278" gradientUnits="userSpaceOnUse">
<stop stop-color="#AB2C37" style="stop-color:#AB2C37;stop-color:color(display-p3 0.6706 0.1725 0.2157);stop-opacity:1;"/>
<stop offset="0.1412" stop-color="#B8303C" style="stop-color:#B8303C;stop-color:color(display-p3 0.7216 0.1882 0.2353);stop-opacity:1;"/>
<stop offset="0.7169" stop-color="#EB414F" style="stop-color:#EB414F;stop-color:color(display-p3 0.9216 0.2549 0.3098);stop-opacity:1;"/>
<stop offset="1" stop-color="#FF4757" style="stop-color:#FF4757;stop-color:color(display-p3 1.0000 0.2784 0.3412);stop-opacity:1;"/>
</linearGradient>
<linearGradient id="paint5_linear_20974_221741" x1="31.4575" y1="18.5762" x2="41.7557" y2="36.4128" gradientUnits="userSpaceOnUse">
<stop stop-color="#AB2C37" style="stop-color:#AB2C37;stop-color:color(display-p3 0.6706 0.1725 0.2157);stop-opacity:1;"/>
<stop offset="0.2831" stop-color="#BF323F" style="stop-color:#BF323F;stop-color:color(display-p3 0.7490 0.1961 0.2471);stop-opacity:1;"/>
<stop offset="0.8588" stop-color="#F24352" style="stop-color:#F24352;stop-color:color(display-p3 0.9490 0.2627 0.3216);stop-opacity:1;"/>
<stop offset="1" stop-color="#FF4757" style="stop-color:#FF4757;stop-color:color(display-p3 1.0000 0.2784 0.3412);stop-opacity:1;"/>
</linearGradient>
<linearGradient id="paint6_linear_20974_221741" x1="22.0563" y1="39.7954" x2="17.8017" y2="32.4264" gradientUnits="userSpaceOnUse">
<stop stop-color="#59171D" style="stop-color:#59171D;stop-color:color(display-p3 0.3490 0.0902 0.1137);stop-opacity:1;"/>
<stop offset="0.1229" stop-color="#641A21" style="stop-color:#641A21;stop-color:color(display-p3 0.3922 0.1020 0.1294);stop-opacity:1;"/>
<stop offset="0.7108" stop-color="#972731" style="stop-color:#972731;stop-color:color(display-p3 0.5922 0.1529 0.1922);stop-opacity:1;"/>
<stop offset="1" stop-color="#AB2C37" style="stop-color:#AB2C37;stop-color:color(display-p3 0.6706 0.1725 0.2157);stop-opacity:1;"/>
</linearGradient>
<linearGradient id="paint7_linear_20974_221741" x1="22.0563" y1="25.5303" x2="23.3694" y2="27.8046" gradientUnits="userSpaceOnUse">
<stop stop-color="#59171D" style="stop-color:#59171D;stop-color:color(display-p3 0.3490 0.0902 0.1137);stop-opacity:1;"/>
<stop offset="0.1229" stop-color="#641A21" style="stop-color:#641A21;stop-color:color(display-p3 0.3922 0.1020 0.1294);stop-opacity:1;"/>
<stop offset="0.7108" stop-color="#972731" style="stop-color:#972731;stop-color:color(display-p3 0.5922 0.1529 0.1922);stop-opacity:1;"/>
<stop offset="1" stop-color="#AB2C37" style="stop-color:#AB2C37;stop-color:color(display-p3 0.6706 0.1725 0.2157);stop-opacity:1;"/>
</linearGradient>
<linearGradient id="paint8_linear_20974_221741" x1="22.0579" y1="37.8572" x2="17.4651" y2="29.9026" gradientUnits="userSpaceOnUse">
<stop stop-color="#FFC538" style="stop-color:#FFC538;stop-color:color(display-p3 1.0000 0.7725 0.2196);stop-opacity:1;"/>
<stop offset="0.1017" stop-color="#FFCC4C" style="stop-color:#FFCC4C;stop-color:color(display-p3 1.0000 0.8000 0.2980);stop-opacity:1;"/>
<stop offset="0.3081" stop-color="#FDDF7F" style="stop-color:#FDDF7F;stop-color:color(display-p3 0.9922 0.8745 0.4980);stop-opacity:1;"/>
<stop offset="0.5" stop-color="#FCF3B3" style="stop-color:#FCF3B3;stop-color:color(display-p3 0.9882 0.9529 0.7020);stop-opacity:1;"/>
<stop offset="0.6192" stop-color="#FCF2B0" style="stop-color:#FCF2B0;stop-color:color(display-p3 0.9882 0.9490 0.6902);stop-opacity:1;"/>
<stop offset="0.7069" stop-color="#FCEEA7" style="stop-color:#FCEEA7;stop-color:color(display-p3 0.9882 0.9333 0.6549);stop-opacity:1;"/>
<stop offset="0.7844" stop-color="#FDE897" style="stop-color:#FDE897;stop-color:color(display-p3 0.9922 0.9098 0.5922);stop-opacity:1;"/>
<stop offset="0.8561" stop-color="#FDE080" style="stop-color:#FDE080;stop-color:color(display-p3 0.9922 0.8784 0.5020);stop-opacity:1;"/>
<stop offset="0.9238" stop-color="#FED563" style="stop-color:#FED563;stop-color:color(display-p3 0.9961 0.8353 0.3882);stop-opacity:1;"/>
<stop offset="0.9876" stop-color="#FFC840" style="stop-color:#FFC840;stop-color:color(display-p3 1.0000 0.7843 0.2510);stop-opacity:1;"/>
<stop offset="1" stop-color="#FFC538" style="stop-color:#FFC538;stop-color:color(display-p3 1.0000 0.7725 0.2196);stop-opacity:1;"/>
</linearGradient>
<linearGradient id="paint9_linear_20974_221741" x1="30.5172" y1="34.9087" x2="26.2625" y2="27.5397" gradientUnits="userSpaceOnUse">
<stop stop-color="#59171D" style="stop-color:#59171D;stop-color:color(display-p3 0.3490 0.0902 0.1137);stop-opacity:1;"/>
<stop offset="0.1229" stop-color="#641A21" style="stop-color:#641A21;stop-color:color(display-p3 0.3922 0.1020 0.1294);stop-opacity:1;"/>
<stop offset="0.7108" stop-color="#972731" style="stop-color:#972731;stop-color:color(display-p3 0.5922 0.1529 0.1922);stop-opacity:1;"/>
<stop offset="1" stop-color="#AB2C37" style="stop-color:#AB2C37;stop-color:color(display-p3 0.6706 0.1725 0.2157);stop-opacity:1;"/>
</linearGradient>
<linearGradient id="paint10_linear_20974_221741" x1="30.5172" y1="20.6436" x2="31.8303" y2="22.9179" gradientUnits="userSpaceOnUse">
<stop stop-color="#59171D" style="stop-color:#59171D;stop-color:color(display-p3 0.3490 0.0902 0.1137);stop-opacity:1;"/>
<stop offset="0.1229" stop-color="#641A21" style="stop-color:#641A21;stop-color:color(display-p3 0.3922 0.1020 0.1294);stop-opacity:1;"/>
<stop offset="0.7108" stop-color="#972731" style="stop-color:#972731;stop-color:color(display-p3 0.5922 0.1529 0.1922);stop-opacity:1;"/>
<stop offset="1" stop-color="#AB2C37" style="stop-color:#AB2C37;stop-color:color(display-p3 0.6706 0.1725 0.2157);stop-opacity:1;"/>
</linearGradient>
<linearGradient id="paint11_linear_20974_221741" x1="30.5187" y1="32.9725" x2="25.926" y2="25.0179" gradientUnits="userSpaceOnUse">
<stop stop-color="#FFC538" style="stop-color:#FFC538;stop-color:color(display-p3 1.0000 0.7725 0.2196);stop-opacity:1;"/>
<stop offset="0.1017" stop-color="#FFCC4C" style="stop-color:#FFCC4C;stop-color:color(display-p3 1.0000 0.8000 0.2980);stop-opacity:1;"/>
<stop offset="0.3081" stop-color="#FDDF7F" style="stop-color:#FDDF7F;stop-color:color(display-p3 0.9922 0.8745 0.4980);stop-opacity:1;"/>
<stop offset="0.5" stop-color="#FCF3B3" style="stop-color:#FCF3B3;stop-color:color(display-p3 0.9882 0.9529 0.7020);stop-opacity:1;"/>
<stop offset="0.6192" stop-color="#FCF2B0" style="stop-color:#FCF2B0;stop-color:color(display-p3 0.9882 0.9490 0.6902);stop-opacity:1;"/>
<stop offset="0.7069" stop-color="#FCEEA7" style="stop-color:#FCEEA7;stop-color:color(display-p3 0.9882 0.9333 0.6549);stop-opacity:1;"/>
<stop offset="0.7844" stop-color="#FDE897" style="stop-color:#FDE897;stop-color:color(display-p3 0.9922 0.9098 0.5922);stop-opacity:1;"/>
<stop offset="0.8561" stop-color="#FDE080" style="stop-color:#FDE080;stop-color:color(display-p3 0.9922 0.8784 0.5020);stop-opacity:1;"/>
<stop offset="0.9238" stop-color="#FED563" style="stop-color:#FED563;stop-color:color(display-p3 0.9961 0.8353 0.3882);stop-opacity:1;"/>
<stop offset="0.9876" stop-color="#FFC840" style="stop-color:#FFC840;stop-color:color(display-p3 1.0000 0.7843 0.2510);stop-opacity:1;"/>
<stop offset="1" stop-color="#FFC538" style="stop-color:#FFC538;stop-color:color(display-p3 1.0000 0.7725 0.2196);stop-opacity:1;"/>
</linearGradient>
<linearGradient id="paint12_linear_20974_221741" x1="38.9821" y1="30.0239" x2="34.7275" y2="22.6549" gradientUnits="userSpaceOnUse">
<stop stop-color="#59171D" style="stop-color:#59171D;stop-color:color(display-p3 0.3490 0.0902 0.1137);stop-opacity:1;"/>
<stop offset="0.1229" stop-color="#641A21" style="stop-color:#641A21;stop-color:color(display-p3 0.3922 0.1020 0.1294);stop-opacity:1;"/>
<stop offset="0.7108" stop-color="#972731" style="stop-color:#972731;stop-color:color(display-p3 0.5922 0.1529 0.1922);stop-opacity:1;"/>
<stop offset="1" stop-color="#AB2C37" style="stop-color:#AB2C37;stop-color:color(display-p3 0.6706 0.1725 0.2157);stop-opacity:1;"/>
</linearGradient>
<linearGradient id="paint13_linear_20974_221741" x1="38.9821" y1="15.7589" x2="40.2952" y2="18.0332" gradientUnits="userSpaceOnUse">
<stop stop-color="#59171D" style="stop-color:#59171D;stop-color:color(display-p3 0.3490 0.0902 0.1137);stop-opacity:1;"/>
<stop offset="0.1229" stop-color="#641A21" style="stop-color:#641A21;stop-color:color(display-p3 0.3922 0.1020 0.1294);stop-opacity:1;"/>
<stop offset="0.7108" stop-color="#972731" style="stop-color:#972731;stop-color:color(display-p3 0.5922 0.1529 0.1922);stop-opacity:1;"/>
<stop offset="1" stop-color="#AB2C37" style="stop-color:#AB2C37;stop-color:color(display-p3 0.6706 0.1725 0.2157);stop-opacity:1;"/>
</linearGradient>
<linearGradient id="paint14_linear_20974_221741" x1="38.9797" y1="28.0878" x2="34.387" y2="20.1332" gradientUnits="userSpaceOnUse">
<stop stop-color="#FFC538" style="stop-color:#FFC538;stop-color:color(display-p3 1.0000 0.7725 0.2196);stop-opacity:1;"/>
<stop offset="0.1017" stop-color="#FFCC4C" style="stop-color:#FFCC4C;stop-color:color(display-p3 1.0000 0.8000 0.2980);stop-opacity:1;"/>
<stop offset="0.3081" stop-color="#FDDF7F" style="stop-color:#FDDF7F;stop-color:color(display-p3 0.9922 0.8745 0.4980);stop-opacity:1;"/>
<stop offset="0.5" stop-color="#FCF3B3" style="stop-color:#FCF3B3;stop-color:color(display-p3 0.9882 0.9529 0.7020);stop-opacity:1;"/>
<stop offset="0.6192" stop-color="#FCF2B0" style="stop-color:#FCF2B0;stop-color:color(display-p3 0.9882 0.9490 0.6902);stop-opacity:1;"/>
<stop offset="0.7069" stop-color="#FCEEA7" style="stop-color:#FCEEA7;stop-color:color(display-p3 0.9882 0.9333 0.6549);stop-opacity:1;"/>
<stop offset="0.7844" stop-color="#FDE897" style="stop-color:#FDE897;stop-color:color(display-p3 0.9922 0.9098 0.5922);stop-opacity:1;"/>
<stop offset="0.8561" stop-color="#FDE080" style="stop-color:#FDE080;stop-color:color(display-p3 0.9922 0.8784 0.5020);stop-opacity:1;"/>
<stop offset="0.9238" stop-color="#FED563" style="stop-color:#FED563;stop-color:color(display-p3 0.9961 0.8353 0.3882);stop-opacity:1;"/>
<stop offset="0.9876" stop-color="#FFC840" style="stop-color:#FFC840;stop-color:color(display-p3 1.0000 0.7843 0.2510);stop-opacity:1;"/>
<stop offset="1" stop-color="#FFC538" style="stop-color:#FFC538;stop-color:color(display-p3 1.0000 0.7725 0.2196);stop-opacity:1;"/>
</linearGradient>
<linearGradient id="paint15_linear_20974_221741" x1="39.9234" y1="31.8251" x2="22.8114" y2="29.2466" gradientUnits="userSpaceOnUse">
<stop stop-color="white" style="stop-color:white;stop-opacity:1;"/>
<stop offset="1" stop-color="white" stop-opacity="0" style="stop-color:none;stop-opacity:0;"/>
</linearGradient>
<linearGradient id="paint16_linear_20974_221741" x1="31.4575" y1="41.506" x2="20.4556" y2="22.4507" gradientUnits="userSpaceOnUse">
<stop stop-color="#FF4757" style="stop-color:#FF4757;stop-color:color(display-p3 1.0000 0.2784 0.3412);stop-opacity:1;"/>
<stop offset="0.563" stop-color="#FF6673" style="stop-color:#FF6673;stop-color:color(display-p3 1.0000 0.4000 0.4510);stop-opacity:1;"/>
<stop offset="1" stop-color="#FF7A85" style="stop-color:#FF7A85;stop-color:color(display-p3 1.0000 0.4784 0.5216);stop-opacity:1;"/>
</linearGradient>
<linearGradient id="paint17_linear_20974_221741" x1="38.2049" y1="23.7803" x2="37.1782" y2="25.5587" gradientUnits="userSpaceOnUse">
<stop stop-color="#59171D" style="stop-color:#59171D;stop-color:color(display-p3 0.3490 0.0902 0.1137);stop-opacity:1;"/>
<stop offset="0.1229" stop-color="#641A21" style="stop-color:#641A21;stop-color:color(display-p3 0.3922 0.1020 0.1294);stop-opacity:1;"/>
<stop offset="0.7108" stop-color="#972731" style="stop-color:#972731;stop-color:color(display-p3 0.5922 0.1529 0.1922);stop-opacity:1;"/>
<stop offset="1" stop-color="#AB2C37" style="stop-color:#AB2C37;stop-color:color(display-p3 0.6706 0.1725 0.2157);stop-opacity:1;"/>
</linearGradient>
<clipPath id="clip0_20974_221741">
<rect width="60" height="60" fill="white" style="fill:white;fill-opacity:1;"/>
</clipPath>
</defs>
</svg>
