<svg xmlns="http://www.w3.org/2000/svg" width="16" height="16" viewBox="0 0 16 16" fill="none">
    <path
        d="M12.4065 11.0505V10.7115C12.4065 10.0245 11.8505 9.46858 11.1635 9.46858H10.9963L11.1635 10.1465H11.168C11.4799 10.1511 11.7285 10.3996 11.7285 10.7115V11.0505H12.4065ZM3.5929 10.7115V11.0505H4.27086V10.7115C4.27086 10.3996 4.52397 10.1465 4.83583 10.1465L5.00306 9.46858H4.83583C4.14882 9.46858 3.5929 10.0245 3.5929 10.7115ZM14.3274 13.0844H14.2144V12.9714C14.2144 12.2859 13.6569 11.7285 12.9714 11.7285H11.1635C10.478 11.7285 9.92058 12.2859 9.92058 12.9714V13.0844H9.80758C9.62044 13.0844 9.4686 13.2362 9.4686 13.4234C9.4686 13.6105 9.62044 13.7624 9.80758 13.7624H10.7115C10.8987 13.7624 11.0505 13.6105 11.0505 13.4234C11.0505 13.2362 10.8987 13.0844 10.7115 13.0844H10.5985V12.9714C10.5985 12.6598 10.8519 12.4064 11.1635 12.4064H12.9714C13.283 12.4064 13.5364 12.6598 13.5364 12.9714V13.0844H13.4234C13.2363 13.0844 13.0844 13.2362 13.0844 13.4234C13.0844 13.6105 13.2363 13.7624 13.4234 13.7624H14.3274C14.5145 13.7624 14.6663 13.6105 14.6663 13.4234C14.6663 13.2362 14.5145 13.0844 14.3274 13.0844ZM6.19177 13.0844H6.07877V12.9714C6.07877 12.2859 5.5213 11.7285 4.83583 11.7285H3.02792C2.34245 11.7285 1.78499 12.2859 1.78499 12.9714V13.0844H1.67199C1.48485 13.0844 1.33301 13.2362 1.33301 13.4234C1.33301 13.6105 1.48485 13.7624 1.67199 13.7624H2.57595C2.76309 13.7624 2.91493 13.6105 2.91493 13.4234C2.91493 13.2362 2.76309 13.0844 2.57595 13.0844H2.46295V12.9714C2.46295 12.6598 2.71631 12.4064 3.02792 12.4064H4.83583C5.14745 12.4064 5.4008 12.6598 5.4008 12.9714V13.0844H5.28781C5.10066 13.0844 4.94883 13.2362 4.94883 13.4234C4.94883 13.6105 5.10066 13.7624 5.28781 13.7624H6.19177C6.37891 13.7624 6.53075 13.6105 6.53075 13.4234C6.53075 13.2362 6.37891 13.0844 6.19177 13.0844ZM6.44266 6.96982C6.89059 7.26353 7.42518 7.43468 7.99967 7.43468C8.57417 7.43468 9.10876 7.26353 9.55669 6.96982C11.3873 6.86775 12.8584 5.3287 12.8584 3.47988C12.8584 3.04379 12.5036 2.68892 12.0675 2.68892H10.9195C10.7909 2.42596 10.5237 2.23694 10.2119 2.23694C10.2036 2.23694 5.78746 2.23694 5.78746 2.23694C5.47902 2.23694 5.21143 2.42654 5.08158 2.68892H3.93188C3.49579 2.68892 3.14092 3.04379 3.14092 3.47988C3.14092 5.3287 4.61205 6.86775 6.44266 6.96982ZM10.8214 4.88083L10.9729 3.36688H12.0675C12.1288 3.36688 12.1805 3.41852 12.1805 3.47988C12.1805 4.65379 11.4445 5.6722 10.4117 6.09315C10.6321 5.73629 10.7771 5.32561 10.8214 4.88083ZM3.93188 3.36688H5.02648C5.07572 3.85919 5.1779 4.88083 5.1779 4.88083C5.22226 5.32561 5.36726 5.73629 5.58768 6.09315C4.55489 5.67223 3.81888 4.65379 3.81888 3.47988C3.81888 3.41852 3.87053 3.36688 3.93188 3.36688ZM7.99967 8.11264C7.59079 8.11264 7.19114 8.03518 6.81158 7.89866C6.75406 8.10986 6.69103 8.32873 6.61875 8.56462H9.37787C9.29985 8.31538 9.23808 8.10134 9.18305 7.90028C8.80487 8.03573 8.40688 8.11264 7.99967 8.11264ZM5.69364 9.49853C5.56533 10.0118 5.41096 10.6292 5.41096 10.6292C5.35832 10.8412 5.52097 11.0505 5.73979 11.0505H10.2595C10.48 11.0505 10.6419 10.8432 10.5884 10.6292L10.3059 9.49933C10.2682 9.34844 10.1326 9.24259 9.97708 9.24259H6.02227C5.86674 9.24259 5.73134 9.34761 5.69364 9.49853Z"
        fill="currentColor" />
</svg>