<svg data-editor-id="expandedNavbarIcon" data-cy="sport-floorball" width="32" height="32" viewBox="0 0 32 32" xmlns="http://www.w3.org/2000/svg" class="sc-1x10e4w-1 cBKOGh sc-1l5d4uu-3 jWQgLC" style="fill: currentcolor; color: inherit; width: 32px; height: 32px;">
<path d="M8.56328 19.3788V26.0213L10.316 26.02V19.9031L8.91739 19.4619C8.80144 19.4253 8.68307 19.3976 8.56328 19.3788V19.3788ZM7.68692 19.4016C6.59611 19.6312 5.77372 20.5952 5.76558 21.7555L5.75277 23.5818C5.75272 23.5912 5.75272 23.5912 5.75272 23.6006C5.75361 24.7707 6.58378 25.7464 7.68692 25.9723V19.4016ZM11.1924 20.1796V26.0193L12.9451 26.018V20.7326L11.1924 20.1796ZM13.8214 21.0091V26.0173L15.5154 26.016C16.2636 26.0154 16.9497 25.5993 17.296 24.936L26.0634 8.14366C26.4638 7.37683 26.1886 6.43071 25.4395 5.99819C25.4148 5.98415 25.4148 5.98415 25.3897 5.97077C24.6967 5.60691 23.84 5.87371 23.4761 6.56668L16.2598 20.3102C15.877 21.0393 15.027 21.3895 14.2418 21.1417L13.8214 21.0091ZM7.31278 10.9021C7.27149 10.8004 7.24874 10.6892 7.24874 10.5727C7.24874 10.0887 7.6411 9.69633 8.1251 9.69633C8.6091 9.69633 9.00146 10.0887 9.00146 10.5727C9.00146 10.6892 8.97871 10.8004 8.93742 10.9021C9.97847 10.617 10.7984 9.79698 11.0836 8.75593C10.9819 8.79723 10.8707 8.81997 10.7542 8.81997C10.2702 8.81997 9.87782 8.42761 9.87782 7.94361C9.87782 7.45961 10.2702 7.06725 10.7542 7.06725C10.8707 7.06725 10.9819 7.09 11.0836 7.13129C10.7984 6.09024 9.97847 5.27027 8.93742 4.98508C8.97871 5.08679 9.00146 5.19801 9.00146 5.31454C9.00146 5.79854 8.6091 6.1909 8.1251 6.1909C7.6411 6.1909 7.24874 5.79854 7.24874 5.31454C7.24874 5.19801 7.27149 5.08679 7.31278 4.98508C6.27173 5.27027 5.45176 6.09024 5.16657 7.13129C5.26828 7.09 5.37949 7.06725 5.49603 7.06725C5.98002 7.06725 6.37238 7.45961 6.37238 7.94361C6.37238 8.42761 5.98002 8.81997 5.49603 8.81997C5.37949 8.81997 5.26828 8.79723 5.16657 8.75593C5.45176 9.79698 6.27173 10.617 7.31278 10.9021ZM8.1251 11.8872C5.9471 11.8872 4.18149 10.1216 4.18149 7.94361C4.18149 5.76562 5.9471 4 8.1251 4C10.3031 4 12.0687 5.76562 12.0687 7.94361C12.0687 10.1216 10.3031 11.8872 8.1251 11.8872ZM8.1251 8.81997C7.6411 8.81997 7.24874 8.42761 7.24874 7.94361C7.24874 7.45961 7.6411 7.06725 8.1251 7.06725C8.6091 7.06725 9.00146 7.45961 9.00146 7.94361C9.00146 8.42761 8.6091 8.81997 8.1251 8.81997ZM21.9243 5.75187C22.7382 4.20186 24.6545 3.6051 26.2045 4.41896C26.2606 4.44888 26.2606 4.44888 26.3158 4.48029C27.8783 5.38236 28.4521 7.35557 27.6171 8.95485L18.8497 25.7472C18.2015 26.9888 16.9173 27.7677 15.5167 27.7687L8.17878 27.7743C5.87267 27.7761 4.00176 25.9081 4 23.6019C4.00001 23.5857 4.00001 23.5857 4.0001 23.5695L4.01291 21.7432C4.02908 19.4371 5.91161 17.5808 8.21767 17.597C8.63405 17.5999 9.04766 17.6651 9.44476 17.7904L14.728 19.4573L21.9243 5.75187Z"></path>
</svg>